# xmcd
#
# Track frame offsets:
#	150
#	16829
#	35288
#	52729
#	68808
#	89271
#	109337
#	128504
#	139670
#	159513
#
# Disc length: 2310 seconds
#
# Revision: 0
# Processed by: cddbd v1.5.2PL0 Copyright (c) Steve Scherf et al.
# Submitted via: EasyCDDAExtractor 10.0.3.1
#
DISCID=7409040a
DTITLE=Yawn Movers - Wrong Line
DYEAR=2008
DGENRE=Country
TTITLE0=All I Do
TTITLE1=Tap - Room Lady
TTITLE2=Dont Let Me In
TTITLE3=Sunlight Express
TTITLE4=Wrong Line
TTITLE5=This Road
TTITLE6=Monkey Man
TTITLE7=Muonio Stomp
TTITLE8=Tell Me Twice
TTITLE9=Hangover You
EXTD=
EXTT0=
EXTT1=
EXTT2=
EXTT3=
EXTT4=
EXTT5=
EXTT6=
EXTT7=
EXTT8=
EXTT9=
PLAYORDER=
